<svg data-v-1084b650="" xmlns="http://www.w3.org/2000/svg" viewBox="0 0 300 300"><!----> <!----> <rect data-v-1084b650="" fill="#F46912" x="0" y="0" width="300px" height="300px" class="logo-background-square"></rect> <!----> <!----> <g data-v-1084b650="" id="bb6d1733-1dcb-8639-73a0-a4bfb668613c" fill="#FCB826" stroke="none" transform="matrix(0.8499999999999999,0,0,0.8499999999999999,22.500004863739036,22.50126943588259)"><svg xmlns="http://www.w3.org/2000/svg" xmlns:xlink="http://www.w3.org/1999/xlink" version="1.1" x="0px" y="0px" viewBox="0 0 100 100" enable-background="new 0 0 100 100" xml:space="preserve"><g><path d="M50,7.353L6.973,25.177v49.646L50,92.646l4.78-1.98v-19.83l13.213-5.473v19.83l0.061-0.025l12.637,5.236   V70.535l-0.006-0.004v-0.002l1.196-0.492v9.404l11.146-4.619V25.177L50,7.353z M77.782,80.957c-0.382,0-0.692-0.432-0.692-0.969   c0-0.529,0.311-0.963,0.692-0.963c0.38,0,0.688,0.434,0.688,0.963C78.471,80.525,78.162,80.957,77.782,80.957z"></path></g></svg></g></svg>