<svg data-v-5f19e91b="" xmlns="http://www.w3.org/2000/svg" width="425" height="81" viewBox="0 0 425 81"><!----> <!----> <!----> <g data-v-5f19e91b="" id="00d05e07-b3e5-9bda-7780-f2962412076c" fill="white" transform="matrix(5.808325309113267,0,0,5.808325309113267,96.67438658570256,-3.581969475108693)"><path d="M2.89 12.67L0.84 12.67L0.84 2.42L2.89 2.42L2.89 6.52L7.67 6.52L7.67 2.41L9.72 2.41L9.72 12.67L7.67 12.67L7.67 8.44L2.89 8.44L2.89 12.67ZM12.66 7.82L11.91 6.66L11.91 6.66Q13.21 5.84 14.92 5.84L14.92 5.84L14.92 5.84Q16.15 5.84 16.86 6.52L16.86 6.52L16.86 6.52Q17.58 7.21 17.58 8.57L17.58 8.57L17.58 12.67L15.67 12.67L15.67 12.13L15.67 12.13Q14.83 12.67 14.16 12.67L14.16 12.67L14.16 12.67Q12.80 12.67 12.11 12.09L12.11 12.09L12.11 12.09Q11.43 11.51 11.43 10.49L11.43 10.49L11.43 10.49Q11.43 9.53 12.08 8.78L12.08 8.78L12.08 8.78Q12.72 8.03 14.16 8.03L14.16 8.03L14.16 8.03Q14.83 8.03 15.67 8.44L15.67 8.44L15.67 8.23L15.67 8.23Q15.65 7.48 14.57 7.41L14.57 7.41L14.57 7.41Q13.34 7.41 12.66 7.82L12.66 7.82ZM15.67 10.62L15.67 10.62L15.67 9.85L15.67 9.85Q15.39 9.32 14.37 9.32L14.37 9.32L14.37 9.32Q13.14 9.46 13.07 10.28L13.07 10.28L13.07 10.28Q13.14 11.09 14.37 11.16L14.37 11.16L14.37 11.16Q15.39 11.16 15.67 10.62ZM23.41 10.25L23.41 10.25L23.41 5.83L25.33 5.83L25.33 12.67L23.41 12.67L23.41 12.05L23.41 12.05Q22.72 12.67 21.77 12.67L21.77 12.67L21.77 12.67Q20.47 12.67 19.79 11.88L19.79 11.88L19.79 11.88Q19.11 11.09 19.11 10.07L19.11 10.07L19.11 5.83L21.02 5.83L21.02 9.59L21.02 9.59Q21.02 10.27 21.36 10.65L21.36 10.65L21.36 10.65Q21.70 11.03 22.39 11.05L22.39 11.05L22.39 11.05Q22.99 11.01 23.41 10.25ZM29.35 5.80L29.35 5.80Q30.31 5.80 30.84 6.03L30.84 6.03L30.84 6.03Q31.38 6.26 31.84 6.72L31.84 6.72L30.78 7.92L30.78 7.92Q30.31 7.37 29.61 7.37L29.61 7.37L29.61 7.37Q28.92 7.37 28.69 7.63L28.69 7.63L28.69 7.63Q28.46 7.88 28.69 8.09L28.69 8.09L28.69 8.09Q28.92 8.30 29.61 8.44L29.61 8.44L29.61 8.44Q30.63 8.53 31.28 9.02L31.28 9.02L31.28 9.02Q31.93 9.50 31.93 10.71L31.93 10.71L31.93 10.71Q31.93 11.68 31.17 12.21L31.17 12.21L31.17 12.21Q30.40 12.74 29.38 12.74L29.38 12.74L29.38 12.74Q28.41 12.74 27.76 12.47L27.76 12.47L27.76 12.47Q27.12 12.19 26.65 11.72L26.65 11.72L27.71 10.53L27.71 10.53Q28.18 11.08 29.16 11.17L29.16 11.17L29.16 11.17Q29.94 11.17 30.17 10.91L30.17 10.91L30.17 10.91Q30.40 10.66 30.24 10.40L30.24 10.40L30.24 10.40Q30.08 10.14 29.16 10.06L29.16 10.06L29.16 10.06Q28.32 9.96 27.63 9.54L27.63 9.54L27.63 9.54Q26.93 9.13 26.93 7.97L26.93 7.97L26.93 7.97Q26.93 6.91 27.72 6.35L27.72 6.35L27.72 6.35Q28.51 5.80 29.35 5.80L29.35 5.80ZM35.24 8.05L35.24 8.05L35.24 12.67L33.33 12.67L33.33 2.42L35.24 2.42L35.24 6.45L35.24 6.45Q35.93 5.84 36.88 5.84L36.88 5.84L36.88 5.84Q38.18 5.84 38.86 6.62L38.86 6.62L38.86 6.62Q39.55 7.41 39.55 8.44L39.55 8.44L39.55 12.67L37.63 12.67L37.63 8.91L37.63 8.91Q37.63 8.23 37.29 7.85L37.29 7.85L37.29 7.85Q36.95 7.48 36.26 7.46L36.26 7.46L36.26 7.46Q35.66 7.50 35.24 8.05ZM41.73 7.82L40.97 6.66L40.97 6.66Q42.27 5.84 43.98 5.84L43.98 5.84L43.98 5.84Q45.21 5.84 45.93 6.52L45.93 6.52L45.93 6.52Q46.65 7.21 46.65 8.57L46.65 8.57L46.65 12.67L44.73 12.67L44.73 12.13L44.73 12.13Q43.90 12.67 43.23 12.67L43.23 12.67L43.23 12.67Q41.86 12.67 41.18 12.09L41.18 12.09L41.18 12.09Q40.50 11.51 40.50 10.49L40.50 10.49L40.50 10.49Q40.50 9.53 41.14 8.78L41.14 8.78L41.14 8.78Q41.79 8.03 43.23 8.03L43.23 8.03L43.23 8.03Q43.89 8.03 44.73 8.44L44.73 8.44L44.73 8.23L44.73 8.23Q44.72 7.48 43.64 7.41L43.64 7.41L43.64 7.41Q42.41 7.41 41.73 7.82L41.73 7.82ZM44.73 10.62L44.73 10.62L44.73 9.85L44.73 9.85Q44.46 9.32 43.44 9.32L43.44 9.32L43.44 9.32Q42.21 9.46 42.14 10.28L42.14 10.28L42.14 10.28Q42.21 11.09 43.44 11.16L43.44 11.16L43.44 11.16Q44.46 11.16 44.73 10.62ZM50.27 12.67L48.36 12.67L48.36 2.42L50.27 2.42L50.27 12.67ZM56.49 12.35L56.49 12.35Q56 12.67 55.36 12.67L55.36 12.67L55.36 12.67Q54.20 12.67 53.52 12.02L53.52 12.02L53.52 12.02Q52.83 11.38 52.83 10.35L52.83 10.35L52.83 7.39L51.81 7.39L51.81 5.84L52.83 5.84L52.83 3.99L54.76 3.79L54.76 5.84L55.78 5.84L55.78 7.39L54.76 7.39L54.76 10.08L54.76 10.08Q54.76 10.62 54.98 10.85L54.98 10.85L54.98 10.85Q55.21 11.07 55.58 11.07L55.58 11.07L55.58 11.07Q55.69 11.07 56.09 10.98L56.09 10.98L56.49 12.35Z"></path></g> <!----> <g data-v-5f19e91b="" id="cfef4650-2a32-feed-5ee7-f66fad822dbc" transform="matrix(0.9477000766330295,0,0,0.9477000766330295,-6.412000618770129,-6.031533241165057)" stroke="none" fill="white"><g><path d="M50,7.353L6.973,25.177v49.646L50,92.646l4.78-1.98v-19.83l13.213-5.473v19.83l0.061-0.025l12.637,5.236   V70.535l-0.006-0.004v-0.002l1.196-0.492v9.404l11.146-4.619V25.177L50,7.353z M77.782,80.957c-0.382,0-0.692-0.432-0.692-0.969   c0-0.529,0.311-0.963,0.692-0.963c0.38,0,0.688,0.434,0.688,0.963C78.471,80.525,78.162,80.957,77.782,80.957z"></path></g></g></svg>